<?xml version="1.0" standalone="no"?>
<!DOCTYPE svg PUBLIC "-//W3C//DTD SVG 20010904//EN"
 "http://www.w3.org/TR/2001/REC-SVG-20010904/DTD/svg10.dtd">
<svg version="1.0" xmlns="http://www.w3.org/2000/svg"
 width="257.000000pt" height="259.000000pt" viewBox="0 0 257.000000 259.000000"
 preserveAspectRatio="xMidYMid meet">
<metadata>
Created by potrace 1.16, written by Peter Selinger 2001-2019
</metadata>
<g transform="translate(0.000000,259.000000) scale(0.100000,-0.100000)"
fill="#000000" stroke="none">
<path d="M1150 2584 c-14 -2 -59 -9 -100 -15 -156 -23 -349 -101 -500 -202
-96 -64 -263 -231 -327 -327 -333 -498 -284 -1138 122 -1568 244 -259 558
-395 915 -395 339 0 623 114 867 346 135 129 230 265 293 418 l29 69 -264 0
-264 0 -30 -44 c-40 -58 -155 -163 -225 -205 -391 -235 -904 -85 -1105 323
-227 458 40 1006 542 1113 101 21 287 13 382 -17 158 -50 326 -168 410 -289
l28 -41 258 0 c219 0 259 2 259 14 0 30 -73 173 -135 267 -182 273 -481 471
-807 534 -81 16 -298 28 -348 19z"/>
<path d="M1385 1451 c-73 -33 -99 -101 -67 -175 35 -79 11 -76 610 -76 522 0
530 0 556 21 82 65 70 184 -24 231 -32 16 -79 18 -535 18 -464 0 -503 -2 -540
-19z"/>
</g>
</svg>
